# xmcd CD database file generated by OrangeCD 6.4
#
# Track frame offsets:
#	150
#	15463
#	27334
#	43108
#	61537
#	75911
#	95211
#	109104
#	122174
#	141344
#	151081
#	168516
#	188336
#	203784
#
# Disc length: 2976 seconds
#
# Revision: 0
# Processed by: cddbd v1.5.2PL0 Copyright (c) Steve Scherf et al.
# Submitted via: OrangeCD 6.4
#
DISCID=aa0b9e0e
DTITLE=Eli Cook - Ace, Jack and King
DYEAR=2011
DGENRE=
TTITLE0=Deathrattle
TTITLE1=Better Man
TTITLE2=Please, Please
TTITLE3=Snake Charm
TTITLE4=Catfish Blues
TTITLE5=Draggin My Dogs
TTITLE6=Afrosippi Breakdown
TTITLE7=Sugar and Rain
TTITLE8=Driftin
TTITLE9=Cocaine Blues
TTITLE10=Crow Jane
TTITLE11=Suicide
TTITLE12=Black Eyed Dog
TTITLE13=Deathrattle (slight return)
EXTD=
EXTT0=
EXTT1=
EXTT2=
EXTT3=
EXTT4=
EXTT5=
EXTT6=
EXTT7=
EXTT8=
EXTT9=
EXTT10=
EXTT11=
EXTT12=
EXTT13=
PLAYORDER=
